<svg xmlns="http://www.w3.org/2000/svg" viewBox="0 0 24 24"><path fill="#303C42" d="M23.5 3h-20a.5.5 0 00-.5.5V6H.5a.5.5 0 00-.5.5V19c0 1.103.897 2 2 2h20c1.103 0 2-.897 2-2V3.5a.5.5 0 00-.5-.5z"/><path fill="#E6E6E5" d="M3 19a1 1 0 01-2 0V7h2v12z"/><path opacity=".1" fill="#010101" d="M2.002 17.81c0 .59-.028 1.18-.112 1.764a5.136 5.136 0 00-.04.396c.051.008.097.03.15.03.552 0 1-.449 1-1V7H2l.002 10.81z"/><path fill="#F3F3F3" d="M23 19c0 .551-.448 1-1 1H3.731c.171-.294.269-.636.269-1V4h19v15z"/><path fill="#303C42" d="M5.5 11a.5.5 0 00.5-.5V7h.5a.5.5 0 01.5.5v3a.5.5 0 101 0v-3C8 6.673 7.327 6 6.5 6h-1a.5.5 0 00-.5.5v4a.5.5 0 00.5.5zM9.5 11h2a.5.5 0 100-1H10V9h1a.5.5 0 100-1h-1V7h1.5a.5.5 0 100-1h-2a.5.5 0 00-.5.5v4a.5.5 0 00.5.5zM14.084 10.777a.5.5 0 00.832 0l.584-.876.584.876a.5.5 0 00.832 0l1-1.5A.5.5 0 0018 9V6.5a.5.5 0 10-1 0v2.349l-.5.75-.5-.75V6.5a.5.5 0 10-1 0v2.349l-.5.75-.5-.75V6.5a.5.5 0 10-1 0V9a.5.5 0 00.084.277l1 1.5zM20.5 10h-1a.5.5 0 100 1h1c.827 0 1.5-.673 1.5-1.5S21.327 8 20.5 8a.5.5 0 010-1h1a.5.5 0 100-1h-1c-.827 0-1.5.673-1.5 1.5S19.673 9 20.5 9a.5.5 0 010 1zM5.5 18h7a.5.5 0 00.5-.5v-5a.5.5 0 00-.5-.5h-7a.5.5 0 00-.5.5v5a.5.5 0 00.5.5zM21.5 13h-7a.5.5 0 100 1h7a.5.5 0 100-1zM21.5 15h-7a.5.5 0 100 1h7a.5.5 0 100-1zM21.5 17h-7a.5.5 0 100 1h7a.5.5 0 100-1z"/><path fill="#3D82C4" d="M6 13h6v4H6z"/><linearGradient id="a" gradientUnits="userSpaceOnUse" x1=".098" y1="6.178" x2="24.812" y2="17.702"><stop offset="0" stop-color="#fff" stop-opacity=".2"/><stop offset="1" stop-color="#fff" stop-opacity="0"/></linearGradient><path fill="url(#a)" d="M23.5 3h-20a.5.5 0 00-.5.5V6H.5a.5.5 0 00-.5.5V19c0 1.103.897 2 2 2h20c1.103 0 2-.897 2-2V3.5a.5.5 0 00-.5-.5z"/></svg>